# xmcd
#
# Track frame offsets:
#	150
#	16467
#	31132
#	49562
#	70035
#	81170
#	98747
#	116757
#	131232
#	150942
#	165212
#	179822
#	196040
#	213505
#
# Disc length: 3065
#
# Revision: 1
# Processed by: cddbd v1.5.2PL0 Copyright (c) Steve Scherf et al.
# Submitted via: kJams Pro (development) 1.0patch44.15
#
DISCID=af0bf70e
DTITLE=Various Artist - 193 Country Hits Today
DYEAR=1
DGENRE=Country
TTITLE0=Jo Dee Messina - Lesson In Leavin'
TTITLE1=Alabama - (God Must Have Spent) A Little More Time On You 
TTITLE2=Faith Hill - The Secret Of Life
TTITLE3=Faith Hill - The Secret Of Life
TTITLE4=Dwight Yoakam - Crazy Little Thing Called Love
TTITLE5=Vince Gill and Patty Loveless - My Kind Of Woman, My Kind Of Man
TTITLE6=Lonestar - Amazed
TTITLE7=Kenny Rogers - The Greatest
TTITLE8=Terri Clark - Unsung Hero
TTITLE9=Ricochet - Seven Bridges Road
TTITLE10=Shane Minor - Slave To The Habit
TTITLE11=Chad Brock - Lightning Does The Work
TTITLE12=Sherrie Austin - Never Been Kissed
TTITLE13=Sawyer Brown - I'm In Love With Her
EXTD=
EXTT0=
EXTT1=
EXTT2=
EXTT3=
EXTT4=
EXTT5=
EXTT6=
EXTT7=
EXTT8=
EXTT9=
EXTT10=
EXTT11=
EXTT12=
EXTT13=
PLAYORDER=
